<svg id="Calque_1" data-name="Calque 1" xmlns="http://www.w3.org/2000/svg" xmlns:xlink="http://www.w3.org/1999/xlink" viewBox="0 0 87.58 76.19"><defs><style>.cls-1{fill:url(#Dégradé_sans_nom_22);}.cls-2{fill:url(#Dégradé_sans_nom_16);}.cls-3{fill:url(#Fondu_de_ciel);}.cls-4{fill:url(#Fondu_de_ciel-2);}.cls-5{fill:#2a2a6b;}.cls-6{fill:#2d3e90;}.cls-7{fill:url(#Dégradé_sans_nom_16-3);}.cls-8{fill:#fff;}.cls-9{fill:url(#Dégradé_sans_nom_22-2);}</style><radialGradient id="Dégradé_sans_nom_22" cx="5.51" cy="64.99" r="31.1" gradientUnits="userSpaceOnUse"><stop offset="0" stop-color="#9cc31a"/><stop offset="0.08" stop-color="#7eb721"/><stop offset="0.18" stop-color="#5fab28"/><stop offset="0.29" stop-color="#45a12e"/><stop offset="0.41" stop-color="#319932"/><stop offset="0.54" stop-color="#239336"/><stop offset="0.71" stop-color="#1a9037"/><stop offset="1" stop-color="#188f38"/></radialGradient><radialGradient id="Dégradé_sans_nom_16" cx="40.07" cy="39.36" r="38.87" gradientUnits="userSpaceOnUse"><stop offset="0" stop-color="#3b68b0"/><stop offset="0.04" stop-color="#3862ab"/><stop offset="0.2" stop-color="#314e9a"/><stop offset="0.39" stop-color="#2b408f"/><stop offset="0.61" stop-color="#283788"/><stop offset="1" stop-color="#273586"/></radialGradient><linearGradient id="Fondu_de_ciel" x1="11.38" y1="63.08" x2="12.07" y2="54.22" gradientUnits="userSpaceOnUse"><stop offset="0" stop-color="#2580c3"/><stop offset="1" stop-color="#2580c3" stop-opacity="0"/></linearGradient><linearGradient id="Fondu_de_ciel-2" x1="47.67" y1="58.69" x2="48.5" y2="48.08" xlink:href="#Fondu_de_ciel"/><radialGradient id="Dégradé_sans_nom_16-3" cx="51.43" cy="70.77" r="21.09" gradientTransform="translate(36.31 -5.81) scale(0.73 1)" xlink:href="#Dégradé_sans_nom_16"/><radialGradient id="Dégradé_sans_nom_22-2" cx="64.69" cy="46.63" r="25.95" xlink:href="#Dégradé_sans_nom_22"/></defs><rect class="cls-1" y="67.29" width="87.51" height="8.9"/><path class="cls-2" d="M41.7,41.29a13,13,0,0,0-1.49-3.64,11.71,11.71,0,0,0-2.55-2.95A13.41,13.41,0,0,0,34,32.56a17.91,17.91,0,0,0-4-1.07,32.15,32.15,0,0,0-5.14-.36H13.48L12.27,37h12.3a26.5,26.5,0,0,1,3.63.21,10.77,10.77,0,0,1,2.61.7,6.52,6.52,0,0,1,3.37,3,10.55,10.55,0,0,1,1,5.14,22.32,22.32,0,0,1-.62,4.74,18.79,18.79,0,0,1-1.64,4.41,16.53,16.53,0,0,1-2.69,3.74,13.77,13.77,0,0,1-3.77,2.8A15.46,15.46,0,0,1,22.77,63a21.19,21.19,0,0,1-4.71.47H13.74l2.75-13.22L8.86,53.46h0L5.57,69.37H16.49a37.35,37.35,0,0,0,6.6-.51,28.09,28.09,0,0,0,5.06-1.4,20.7,20.7,0,0,0,5-2.83A22.27,22.27,0,0,0,36.91,61a21.85,21.85,0,0,0,2.57-4.1,27.62,27.62,0,0,0,1.61-4.19,24.75,24.75,0,0,0,.85-3.92,25.65,25.65,0,0,0,.24-3.25A17.89,17.89,0,0,0,41.7,41.29Z" transform="translate(-3.69 -5.81)"/><path class="cls-2" d="M63.26,46.9v0H49L51,37H62.7a8.2,8.2,0,0,0,6-5.86H45.26L37.34,69.37s6.35-.88,7.91-4.46h0l2.53-12.17H59.73l1-5.77Z" transform="translate(-3.69 -5.81)"/><path class="cls-3" d="M7.5,60s4.13-2.92,7.59-3l1.4-6.74L8.86,53.46l-1.1,6" transform="translate(-3.69 -5.81)"/><path class="cls-4" d="M33.35,54.3a20.42,20.42,0,0,1,14.67-3s12,.84,13.47-1l1.78-3.41H49l.79-3.83-7.59,2.46-7,1.37-1.43,6.58" transform="translate(-3.69 -5.81)"/><path class="cls-5" d="M42.73,19a6.6,6.6,0,0,1,3.63,3.46s-.1-5-5.81-5.23c0,0-6.62.77-8.59-1.52,0,0-1.92-2-1.89-4a16.93,16.93,0,0,0,2.51,9.6s1.14,2.17,4.77,4c0,0-3.52.16-3.52,3.58,0,0,.31-3.42,5.91-2.59,0,0,3.22,1.14,4.83-.06,0,0-4.26.37-9.13-3.47,0,0-2.6-2.44-3.12-5.19a9.68,9.68,0,0,0,3.06.93,15.21,15.21,0,0,0,3.79,0A7.91,7.91,0,0,1,42.73,19Z" transform="translate(-3.69 -5.81)"/><path class="cls-6" d="M45.5,18.61s-1.61-2.91-6.69-2.08c0,0-3.93-4.43-.61-10.72,0,0-.48,2.84,4.29,5.33,0,0,5.38,2,4.25,8.57a7.57,7.57,0,0,0-3.63-7s-3.45-1.35-4.91-3.63c0,0-1.17,3.6,1,6.23C39.24,15.36,44.64,14.77,45.5,18.61Z" transform="translate(-3.69 -5.81)"/><path class="cls-5" d="M38.62,34.77s-.07-3,6-5.16c0,0,6.6-2.08,6.93-5,0,0-.24-4.52.64-5.3a2.6,2.6,0,0,1,2.18-1,2.3,2.3,0,0,0-1.46-.78s-2.24-2.28-4.1.26a3,3,0,0,1,3.64,0,2,2,0,0,0-1.35,2.51s.67,4.17-2,6.41A16.16,16.16,0,0,1,46.09,28l-1.8.55S40,30,38.76,32.24A2.74,2.74,0,0,0,38.62,34.77Z" transform="translate(-3.69 -5.81)"/><polygon class="cls-7" points="54.56 67.29 59.04 76.19 87.09 76.19 87.09 67.29 54.56 67.29"/><path class="cls-8" d="M6.37,75.09H8.14a5.06,5.06,0,0,1,1.2.14,2.65,2.65,0,0,1,.94.45,1.82,1.82,0,0,1,.57.81,2.62,2.62,0,0,1,.08,1.21,2.8,2.8,0,0,1-1.18,1.91,3.4,3.4,0,0,1-1,.5,4.19,4.19,0,0,1-1.17.17H5.62ZM7,79.22h.61a3.28,3.28,0,0,0,.78-.08A1.92,1.92,0,0,0,9,78.88a1.5,1.5,0,0,0,.47-.5,1.8,1.8,0,0,0,.26-.74A1.3,1.3,0,0,0,9.66,77a1.12,1.12,0,0,0-.33-.47,1.52,1.52,0,0,0-.54-.27,2.63,2.63,0,0,0-.7-.09H7.4Z" transform="translate(-3.69 -5.81)"/><path class="cls-8" d="M11.75,76.72h1.13l-.51,3.56H11.23Zm.06-1.12a1.06,1.06,0,0,1,.09-.25.85.85,0,0,1,.17-.2,1,1,0,0,1,.24-.14.75.75,0,0,1,.26-.05.51.51,0,0,1,.43.19.54.54,0,0,1,.13.45.73.73,0,0,1-.08.25,1.12,1.12,0,0,1-.17.2.76.76,0,0,1-.23.13.66.66,0,0,1-.27.06.54.54,0,0,1-.25-.06.5.5,0,0,1-.19-.13.64.64,0,0,1-.11-.2A.69.69,0,0,1,11.81,75.6Z" transform="translate(-3.69 -5.81)"/><path class="cls-8" d="M13.31,76.72h1.23l.57,2.42h0l1.21-2.42h1.15l-2,3.56h-1.2Z" transform="translate(-3.69 -5.81)"/><path class="cls-8" d="M17.92,76.72h1.13l-.51,3.56H17.4ZM18,75.6a1.06,1.06,0,0,1,.09-.25.85.85,0,0,1,.17-.2,1,1,0,0,1,.24-.14.75.75,0,0,1,.26-.05.51.51,0,0,1,.43.19.54.54,0,0,1,.13.45.73.73,0,0,1-.08.25,1.12,1.12,0,0,1-.17.2.76.76,0,0,1-.23.13.66.66,0,0,1-.27.06.54.54,0,0,1-.25-.06.5.5,0,0,1-.19-.13.64.64,0,0,1-.11-.2A.69.69,0,0,1,18,75.6Z" transform="translate(-3.69 -5.81)"/><path class="cls-8" d="M19.87,76.72H21l-.07.48h0a1.62,1.62,0,0,1,.18-.2,2.48,2.48,0,0,1,.26-.19,2.52,2.52,0,0,1,.33-.13,1.58,1.58,0,0,1,.38-.05,1.42,1.42,0,0,1,.68.13.79.79,0,0,1,.37.35,1.48,1.48,0,0,1,.12.54,4.07,4.07,0,0,1,0,.67l-.28,2H21.76L22,78.53l0-.31a.8.8,0,0,0,0-.31.37.37,0,0,0-.14-.22.5.5,0,0,0-.33-.09.77.77,0,0,0-.36.07.7.7,0,0,0-.24.21.87.87,0,0,0-.14.29,3.4,3.4,0,0,0-.07.34l-.25,1.77H19.35Z" transform="translate(-3.69 -5.81)"/><path class="cls-8" d="M27.25,79.66a2,2,0,0,1-.76.52,2.32,2.32,0,0,1-.88.19,2.13,2.13,0,0,1-.78-.14,1.52,1.52,0,0,1-.6-.37,1.45,1.45,0,0,1-.34-.59,1.63,1.63,0,0,1-.05-.77,2,2,0,0,1,.27-.77,2.07,2.07,0,0,1,.51-.59,2.42,2.42,0,0,1,.71-.38,2.75,2.75,0,0,1,.81-.13,1.9,1.9,0,0,1,.7.13,1.32,1.32,0,0,1,.49.38,1.38,1.38,0,0,1,.26.59,2.19,2.19,0,0,1,0,.77l-.05.34H24.92a.71.71,0,0,0,.22.5.72.72,0,0,0,.53.19,1,1,0,0,0,.49-.12,1.4,1.4,0,0,0,.38-.31Zm-.73-1.56a.57.57,0,0,0-.12-.48.6.6,0,0,0-.48-.2.93.93,0,0,0-.6.21.76.76,0,0,0-.19.21.85.85,0,0,0-.11.26Z" transform="translate(-3.69 -5.81)"/><path class="cls-8" d="M31.21,75.09H34.8l-.15,1.06H32.24l-.15,1h2.23l-.16,1.06H31.93l-.29,2H30.46Z" transform="translate(-3.69 -5.81)"/><path class="cls-8" d="M35.28,76.72h1.14l-.52,3.56H34.77Zm.07-1.12a1.06,1.06,0,0,1,.09-.25.85.85,0,0,1,.17-.2,1.09,1.09,0,0,1,.23-.14.86.86,0,0,1,.27-.05.53.53,0,0,1,.43.19.54.54,0,0,1,.13.45.58.58,0,0,1-.09.25.65.65,0,0,1-.17.2.58.58,0,0,1-.23.13.58.58,0,0,1-.26.06.54.54,0,0,1-.25-.06.43.43,0,0,1-.19-.13.49.49,0,0,1-.11-.2A.69.69,0,0,1,35.35,75.6Z" transform="translate(-3.69 -5.81)"/><path class="cls-8" d="M37.24,76.72h1.08l-.06.48h0a1.62,1.62,0,0,1,.18-.2,1.74,1.74,0,0,1,.26-.19,2.06,2.06,0,0,1,.33-.13,1.52,1.52,0,0,1,.38-.05,1.44,1.44,0,0,1,.68.13.72.72,0,0,1,.36.35,1.3,1.3,0,0,1,.13.54,4.07,4.07,0,0,1-.05.67l-.28,2H39.13l.25-1.75,0-.31a.8.8,0,0,0,0-.31.42.42,0,0,0-.14-.22.5.5,0,0,0-.33-.09.84.84,0,0,0-.37.07.77.77,0,0,0-.23.21.87.87,0,0,0-.14.29,3.4,3.4,0,0,0-.07.34l-.25,1.77H36.72Z" transform="translate(-3.69 -5.81)"/><path class="cls-8" d="M43.43,79.83h0a1.21,1.21,0,0,1-.56.41,2,2,0,0,1-.68.13,1.85,1.85,0,0,1-.48-.07,1.22,1.22,0,0,1-.39-.21.85.85,0,0,1-.24-.35,1,1,0,0,1,0-.47,1.18,1.18,0,0,1,.36-.72,1.92,1.92,0,0,1,.69-.37A3.28,3.28,0,0,1,42.9,78l.79,0a.47.47,0,0,0-.15-.46.7.7,0,0,0-.48-.17,1.36,1.36,0,0,0-.53.11,2.19,2.19,0,0,0-.46.31l-.51-.6a2.57,2.57,0,0,1,.8-.43,3,3,0,0,1,.89-.14,2.23,2.23,0,0,1,.81.12.93.93,0,0,1,.46.36,1.1,1.1,0,0,1,.19.57,3.69,3.69,0,0,1,0,.79l-.26,1.81h-1Zm-.12-1.11H43a2.32,2.32,0,0,0-.38.06,1.43,1.43,0,0,0-.33.15.41.41,0,0,0-.16.29.3.3,0,0,0,0,.17.32.32,0,0,0,.11.12.4.4,0,0,0,.16.08l.19,0a1.26,1.26,0,0,0,.33-.05,1,1,0,0,0,.29-.12.63.63,0,0,0,.22-.21.69.69,0,0,0,.12-.29l0-.23Z" transform="translate(-3.69 -5.81)"/><path class="cls-8" d="M45.64,76.72h1.08l-.06.48h0a1.62,1.62,0,0,1,.18-.2,1.74,1.74,0,0,1,.26-.19,2.06,2.06,0,0,1,.33-.13,1.58,1.58,0,0,1,.38-.05,1.42,1.42,0,0,1,.68.13.72.72,0,0,1,.36.35,1.3,1.3,0,0,1,.13.54,4.07,4.07,0,0,1-.05.67l-.28,2H47.53l.25-1.75,0-.31a.8.8,0,0,0,0-.31.37.37,0,0,0-.14-.22.5.5,0,0,0-.33-.09.77.77,0,0,0-.36.07.7.7,0,0,0-.24.21.87.87,0,0,0-.14.29,3.4,3.4,0,0,0-.07.34l-.25,1.77H45.12Z" transform="translate(-3.69 -5.81)"/><path class="cls-8" d="M52.3,77.87a.67.67,0,0,0-.21-.2.64.64,0,0,0-.31-.07,1,1,0,0,0-.71.25,1,1,0,0,0-.33.65.82.82,0,0,0,.14.65.86.86,0,0,0,1,.17,1.85,1.85,0,0,0,.27-.19l.63.76a1.89,1.89,0,0,1-.68.37,2.59,2.59,0,0,1-.69.11,2.13,2.13,0,0,1-.78-.14,1.52,1.52,0,0,1-.6-.37,1.45,1.45,0,0,1-.34-.59,1.63,1.63,0,0,1,0-.77,2.13,2.13,0,0,1,.26-.77,2.27,2.27,0,0,1,.52-.59,2.42,2.42,0,0,1,.71-.38,2.75,2.75,0,0,1,.81-.13,2.29,2.29,0,0,1,.67.11,1.16,1.16,0,0,1,.57.37Z" transform="translate(-3.69 -5.81)"/><path class="cls-8" d="M56.67,79.66a2.1,2.1,0,0,1-.76.52,2.37,2.37,0,0,1-.89.19,2.21,2.21,0,0,1-.78-.14,1.47,1.47,0,0,1-.94-1,1.77,1.77,0,0,1,0-.77,2,2,0,0,1,.27-.77,2.11,2.11,0,0,1,.52-.59,2.36,2.36,0,0,1,.7-.38,2.76,2.76,0,0,1,.82-.13,1.84,1.84,0,0,1,.69.13,1.25,1.25,0,0,1,.49.38,1.27,1.27,0,0,1,.26.59,2.17,2.17,0,0,1,0,.77l-.06.34H54.33a.75.75,0,0,0,.22.5.76.76,0,0,0,.54.19,1,1,0,0,0,.49-.12A1.79,1.79,0,0,0,56,79.1Zm-.74-1.56a.57.57,0,0,0-.12-.48.59.59,0,0,0-.47-.2.9.9,0,0,0-.34.06,1.17,1.17,0,0,0-.27.15,1,1,0,0,0-.19.21.82.82,0,0,0-.1.26Z" transform="translate(-3.69 -5.81)"/><path class="cls-8" d="M59.89,77.77a.7.7,0,0,0-.62-.3.75.75,0,0,0-.29.06.28.28,0,0,0-.16.23.16.16,0,0,0,.11.19,1.7,1.7,0,0,0,.34.11l.44.1a1.57,1.57,0,0,1,.44.18.77.77,0,0,1,.3.32.8.8,0,0,1,.07.53,1.06,1.06,0,0,1-.24.57,1.33,1.33,0,0,1-.45.36,2,2,0,0,1-.57.19,3.21,3.21,0,0,1-.6.06,2.87,2.87,0,0,1-.77-.11,1.25,1.25,0,0,1-.61-.38l.79-.74a1,1,0,0,0,.32.29.83.83,0,0,0,.43.1,1.44,1.44,0,0,0,.37,0,.27.27,0,0,0,.19-.21.19.19,0,0,0-.11-.2,1.35,1.35,0,0,0-.34-.12l-.45-.1a1.92,1.92,0,0,1-.44-.17.74.74,0,0,1-.37-.85,1.18,1.18,0,0,1,.21-.54,1.28,1.28,0,0,1,.4-.37,1.91,1.91,0,0,1,.53-.22,2.22,2.22,0,0,1,.57-.07,3,3,0,0,1,.72.1,1.14,1.14,0,0,1,.58.37Z" transform="translate(-3.69 -5.81)"/><path class="cls-8" d="M66.57,79a1.9,1.9,0,0,1-1.86,1.39c-1.11,0-1.79-.65-1.22-2.78C63.9,76,64.67,75,65.89,75s1.36,1,1.31,1.37h-.41c0-.34,0-1.07-.93-1.07s-1.59.9-2,2.29c-.5,2,.07,2.46.84,2.46A1.54,1.54,0,0,0,66.14,79Z" transform="translate(-3.69 -5.81)"/><path class="cls-8" d="M70.48,78.39c-.25,1-.79,2-1.93,2s-1.38-1-1.06-2.1c.38-1.33,1.11-1.86,1.89-1.86C70.63,76.39,70.73,77.38,70.48,78.39Zm-2.57-.12c-.29,1-.17,1.78.67,1.78s1.23-.78,1.48-1.65.23-1.71-.71-1.71C68.77,76.69,68.21,77.18,67.91,78.27Z" transform="translate(-3.69 -5.81)"/><path class="cls-8" d="M71.73,77.63c.21-.78.28-1.08.3-1.18h.39c0,.12-.07.36-.13.57a1.41,1.41,0,0,1,1.25-.63c.63,0,1.17.32.93,1.22l-.72,2.67h-.4l.7-2.62c.16-.57,0-1-.61-1s-1.17.44-1.42,1.36l-.59,2.22H71Z" transform="translate(-3.69 -5.81)"/><path class="cls-8" d="M75.32,79.28c0,.48.3.77.87.77s.8-.27.87-.57c.12-.45-.09-.75-.71-1.09s-1-.72-.82-1.27a1.13,1.13,0,0,1,1.18-.73c.93,0,1.17.55,1.11,1h-.39c0-.33-.12-.71-.76-.71a.71.71,0,0,0-.75.47c-.12.43.1.66.65,1,.88.49,1.05.89.89,1.44a1.24,1.24,0,0,1-1.32.79c-.87,0-1.29-.47-1.22-1.06Z" transform="translate(-3.69 -5.81)"/><path class="cls-8" d="M78.86,78.35a3.44,3.44,0,0,0-.13.83c0,.55.22.87.8.87a1.16,1.16,0,0,0,1-.66H81a1.56,1.56,0,0,1-1.5,1c-1.32,0-1.25-1.18-1-2.08.36-1.29,1-1.88,1.89-1.88s1.32.66,1,1.68l-.08.28ZM81,78.07a2.34,2.34,0,0,0,.13-.65c0-.41-.17-.74-.79-.74s-1.13.61-1.37,1.39Z" transform="translate(-3.69 -5.81)"/><path class="cls-8" d="M82.87,76.45h.4l-1,3.83h-.41Zm.44-1.63h.41l-.21.74h-.4Z" transform="translate(-3.69 -5.81)"/><path class="cls-8" d="M83.53,80.28,85,74.82h.4l-1.47,5.46Z" transform="translate(-3.69 -5.81)"/><path class="cls-8" d="M85.64,79.28c0,.48.31.77.88.77a.78.78,0,0,0,.87-.57c.12-.45-.09-.75-.71-1.09s-1-.72-.82-1.27A1.12,1.12,0,0,1,87,76.39c.92,0,1.17.55,1.11,1h-.39c0-.33-.13-.71-.76-.71a.71.71,0,0,0-.75.47c-.12.43.1.66.65,1,.87.49,1,.89.88,1.44a1.22,1.22,0,0,1-1.31.79c-.87,0-1.3-.47-1.22-1.06Z" transform="translate(-3.69 -5.81)"/><path class="cls-9" d="M91.27,31.9a28.24,28.24,0,0,0-4.87-1.11,33.39,33.39,0,0,0-4.65-.38,22,22,0,0,0-6.91,1.05A19.4,19.4,0,0,0,69.2,34.3,19.68,19.68,0,0,0,65,38.52a25.88,25.88,0,0,0-2.92,5.14A28.18,28.18,0,0,0,61,47l7-.2c-1.58,5.11-6.93,5.93-8,6-.05.75-.09,1.48-.09,2.21A18.39,18.39,0,0,0,61,61.83a12.34,12.34,0,0,0,3.2,4.68,13.06,13.06,0,0,0,4.93,2.7,21.5,21.5,0,0,0,6.34.88,41.32,41.32,0,0,0,4.8-.32,23.91,23.91,0,0,0,5-1.11l1.26-6.18a32.44,32.44,0,0,1-4.85,1.27,23.87,23.87,0,0,1-4.7.42A17.08,17.08,0,0,1,73,63.73a8,8,0,0,1-3.21-1.55,7.29,7.29,0,0,1-2.16-3,12.4,12.4,0,0,1-.79-4.78A24,24,0,0,1,67.26,50a21.18,21.18,0,0,1,1.29-4.23A18,18,0,0,1,70.68,42a14.17,14.17,0,0,1,3-3,13.4,13.4,0,0,1,3.84-2,14.41,14.41,0,0,1,4.61-.72,24.08,24.08,0,0,1,2.43.13h0S88.38,36.21,91.27,31.9Z" transform="translate(-3.69 -5.81)"/><path class="cls-5" d="M51.45,24.9a6.41,6.41,0,0,0,0-4.58" transform="translate(-3.69 -5.81)"/></svg>